<svg width="139" height="80" viewBox="0 0 139 80" fill="none" xmlns="http://www.w3.org/2000/svg">
<ellipse cx="67.4922" cy="42.6795" rx="30.539" ry="31.9548" transform="rotate(1.73463 67.4922 42.6795)" fill="#4361EE"/>
<path d="M73.25 42.8203C73.25 44.1795 72.6047 45.4831 71.456 46.4442C70.3074 47.4054 68.7494 47.9453 67.125 47.9453C65.5005 47.9453 63.9426 47.4054 62.794 46.4442C61.6453 45.4831 61 44.1795 61 42.8203C61 41.4611 61.6453 40.1575 62.794 39.1964C63.9426 38.2353 65.5005 37.6953 67.125 37.6953C68.7494 37.6953 70.3074 38.2353 71.456 39.1964C72.6047 40.1575 73.25 41.4611 73.25 42.8203V42.8203Z" stroke="white" stroke-width="2" stroke-linecap="round" stroke-linejoin="round"/>
<path d="M63.9552 29.9452C64.8249 26.9454 69.925 26.9454 70.7948 29.9452C70.9253 30.3958 71.1811 30.8144 71.5414 31.1666C71.9018 31.5189 72.3564 31.7951 72.8684 31.9725C73.3804 32.15 73.9352 32.2238 74.4877 32.188C75.0402 32.1522 75.5748 32.0077 76.048 31.7663C79.1983 30.1604 82.8059 33.1774 80.8867 35.815C80.5987 36.2108 80.4262 36.6578 80.3835 37.1198C80.3408 37.5818 80.4289 38.0457 80.6408 38.4738C80.8526 38.902 81.1822 39.2822 81.6028 39.5837C82.0234 39.8852 82.523 40.0994 83.0611 40.2089C86.6463 40.9366 86.6463 45.204 83.0611 45.9318C82.5225 46.041 82.0224 46.255 81.6013 46.5565C81.1803 46.858 80.8503 47.2385 80.6382 47.6668C80.4261 48.0952 80.3378 48.5595 80.3807 49.0218C80.4235 49.4841 80.5962 49.9314 80.8847 50.3273C82.8039 52.9633 79.1983 55.9819 76.0459 54.3761C75.573 54.135 75.0387 53.9907 74.4866 53.955C73.9344 53.9192 73.38 53.993 72.8683 54.1703C72.3567 54.3475 71.9022 54.6233 71.5419 54.9752C71.1816 55.3271 70.9256 55.7452 70.7948 56.1954C69.925 59.1953 64.8249 59.1953 63.9552 56.1954C63.8247 55.7448 63.5689 55.3263 63.2085 54.974C62.8482 54.6217 62.3935 54.3456 61.8816 54.1681C61.3696 53.9906 60.8148 53.9168 60.2623 53.9526C59.7097 53.9885 59.1751 54.133 58.702 54.3744C55.5517 55.9802 51.9441 52.9633 53.8632 50.3256C54.1513 49.9299 54.3237 49.4828 54.3665 49.0208C54.4092 48.5588 54.3211 48.0949 54.1092 47.6668C53.8973 47.2387 53.5677 46.8584 53.1472 46.5569C52.7266 46.2555 52.227 46.0413 51.6889 45.9318C48.1037 45.204 48.1037 40.9366 51.6889 40.2089C52.2275 40.0997 52.7276 39.8856 53.1487 39.5841C53.5697 39.2826 53.8997 38.9022 54.1118 38.4738C54.3239 38.0454 54.4121 37.5812 54.3693 37.1188C54.3265 36.6565 54.1538 36.2092 53.8653 35.8133C51.9461 33.1774 55.5517 30.1587 58.704 31.7646C60.7375 32.8032 63.3917 31.8841 63.9552 29.9452Z" stroke="white" stroke-width="2" stroke-linecap="round" stroke-linejoin="round"/>
<path d="M101.155 7.83878L115.57 29.632C118.628 34.2559 119.897 39.7917 119.096 45.0214C118.295 50.251 115.491 54.7463 111.3 57.5183L107.35 60.1312M101.155 7.83878L97.9528 28.7535M101.155 7.83878L121.655 13.0759" stroke="#4361EE" stroke-width="4" stroke-linecap="round" stroke-linejoin="round"/>
<path d="M21.9287 68.844L18.0321 40.7428C17.2053 34.7805 18.5076 28.7719 21.6524 24.0387C24.7973 19.3056 29.527 16.2357 34.8013 15.5044L39.7729 14.815M21.9287 68.844L34.5055 49.9152M21.9287 68.844L4.67589 54.0514" stroke="#4361EE" stroke-width="4" stroke-linecap="round" stroke-linejoin="round"/>
</svg>
