<svg width="405" height="144" viewBox="0 0 405 144" fill="none" xmlns="http://www.w3.org/2000/svg">
<path d="M22.2 95L20.85 66.95L71.1 14H98.1L52.8 62.75L39.3 77.15L22.2 95ZM0.450001 119V14H24.6V119H0.450001ZM72.3 119L34.95 73.25L50.85 56L100.65 119H72.3ZM122.572 119L93.4723 38.3H115.522L139.672 107.75H129.172L154.372 38.3H174.172L198.622 107.75H188.122L213.022 38.3H233.722L204.472 119H181.822L160.372 59.45H167.272L145.072 119H122.572Z" fill="black"/>
<path d="M244.601 119V38.3H268.001V119H244.601ZM256.301 27.05C252.001 27.05 248.501 25.8 245.801 23.3C243.101 20.8 241.751 17.7 241.751 14C241.751 10.3 243.101 7.19999 245.801 4.7C248.501 2.19999 252.001 0.949991 256.301 0.949991C260.601 0.949991 264.101 2.14999 266.801 4.55C269.501 6.85 270.851 9.85 270.851 13.55C270.851 17.45 269.501 20.7 266.801 23.3C264.201 25.8 260.701 27.05 256.301 27.05ZM342.218 120.8C334.018 120.8 326.368 119.45 319.268 116.75C312.268 114.05 306.168 110.25 300.968 105.35C295.868 100.45 291.868 94.7 288.968 88.1C286.168 81.5 284.768 74.3 284.768 66.5C284.768 58.7 286.168 51.5 288.968 44.9C291.868 38.3 295.918 32.55 301.118 27.65C306.318 22.75 312.418 18.95 319.418 16.25C326.418 13.55 334.018 12.2 342.218 12.2C350.518 12.2 358.118 13.55 365.018 16.25C372.018 18.95 378.068 22.75 383.168 27.65C388.368 32.45 392.418 38.15 395.318 44.75C398.218 51.35 399.668 58.6 399.668 66.5C399.668 74.3 398.218 81.55 395.318 88.25C392.418 94.85 388.368 100.6 383.168 105.5C378.068 110.3 372.018 114.05 365.018 116.75C358.118 119.45 350.518 120.8 342.218 120.8ZM376.568 143.15C372.468 143.15 368.568 142.7 364.868 141.8C361.268 140.9 357.668 139.45 354.068 137.45C350.568 135.45 346.868 132.75 342.968 129.35C339.168 125.95 335.018 121.75 330.518 116.75L356.018 110.3C358.718 114 361.218 116.95 363.518 119.15C365.818 121.35 368.018 122.9 370.118 123.8C372.318 124.7 374.618 125.15 377.018 125.15C383.418 125.15 389.118 122.55 394.118 117.35L404.918 130.25C397.818 138.85 388.368 143.15 376.568 143.15ZM342.218 100.1C346.918 100.1 351.218 99.3 355.118 97.7C359.118 96.1 362.618 93.8 365.618 90.8C368.618 87.8 370.918 84.25 372.518 80.15C374.218 75.95 375.068 71.4 375.068 66.5C375.068 61.5 374.218 56.95 372.518 52.85C370.918 48.75 368.618 45.2 365.618 42.2C362.618 39.2 359.118 36.9 355.118 35.3C351.218 33.7 346.918 32.9 342.218 32.9C337.518 32.9 333.168 33.7 329.168 35.3C325.168 36.9 321.668 39.2 318.668 42.2C315.768 45.2 313.468 48.75 311.768 52.85C310.168 56.95 309.368 61.5 309.368 66.5C309.368 71.4 310.168 75.95 311.768 80.15C313.468 84.25 315.768 87.8 318.668 90.8C321.668 93.8 325.168 96.1 329.168 97.7C333.168 99.3 337.518 100.1 342.218 100.1Z" fill="#4361EE"/>
</svg>
